<svg width="13" height="8" viewBox="0 0 13 8" fill="none" xmlns="http://www.w3.org/2000/svg">
<path id="Vector" fill-rule="evenodd" clip-rule="evenodd" d="M0.351603 0.366346C0.576637 0.141381 0.881806 0.0150022 1.2 0.0150022C1.5182 0.0150022 1.82337 0.141381 2.0484 0.366346L6 4.31795L9.9516 0.366346C10.0623 0.251734 10.1947 0.160315 10.3411 0.0974242C10.4875 0.0345334 10.645 0.00142989 10.8043 4.53085e-05C10.9637 -0.00133927 11.1217 0.0290225 11.2691 0.0893596C11.4166 0.149697 11.5506 0.2388 11.6633 0.351472C11.7759 0.464143 11.8651 0.598125 11.9254 0.745601C11.9857 0.893077 12.0161 1.05109 12.0147 1.21043C12.0133 1.36976 11.9802 1.52723 11.9173 1.67363C11.8544 1.82004 11.763 1.95245 11.6484 2.06315L6.8484 6.86314C6.62337 7.08811 6.3182 7.21449 6 7.21449C5.68181 7.21449 5.37664 7.08811 5.1516 6.86314L0.351603 2.06315C0.126638 1.83811 0.000259399 1.53294 0.000259399 1.21475C0.000259399 0.896549 0.126638 0.591379 0.351603 0.366346Z" fill="white"/>
</svg>
