<svg width="40" height="40" viewBox="0 0 40 40" fill="none" xmlns="http://www.w3.org/2000/svg">
<path fill-rule="evenodd" clip-rule="evenodd" d="M20 36C24.2435 36 28.3131 34.3143 31.3137 31.3137C34.3143 28.3131 36 24.2435 36 20C36 15.7565 34.3143 11.6869 31.3137 8.68629C28.3131 5.68571 24.2435 4 20 4C15.7565 4 11.6869 5.68571 8.68629 8.68629C5.68571 11.6869 4 15.7565 4 20C4 24.2435 5.68571 28.3131 8.68629 31.3137C11.6869 34.3143 15.7565 36 20 36ZM21.414 15.414C21.7783 15.0368 21.9799 14.5316 21.9753 14.0072C21.9708 13.4828 21.7605 12.9812 21.3896 12.6104C21.0188 12.2395 20.5172 12.0292 19.9928 12.0247C19.4684 12.0201 18.9632 12.2217 18.586 12.586L12.586 18.586C12.2111 18.9611 12.0004 19.4697 12.0004 20C12.0004 20.5303 12.2111 21.0389 12.586 21.414L18.586 27.414C18.9632 27.7783 19.4684 27.9799 19.9928 27.9753C20.5172 27.9708 21.0188 27.7605 21.3896 27.3896C21.7605 27.0188 21.9708 26.5172 21.9753 25.9928C21.9799 25.4684 21.7783 24.9632 21.414 24.586L18.828 22H26C26.5304 22 27.0391 21.7893 27.4142 21.4142C27.7893 21.0391 28 20.5304 28 20C28 19.4696 27.7893 18.9609 27.4142 18.5858C27.0391 18.2107 26.5304 18 26 18H18.828L21.414 15.414Z" fill="#0085FF"/>
</svg>
