<svg width="32" height="32" viewBox="0 0 32 32" fill="none" xmlns="http://www.w3.org/2000/svg">
<path fill-rule="evenodd" clip-rule="evenodd" d="M16.0002 28.7999C19.395 28.7999 22.6507 27.4514 25.0512 25.0509C27.4516 22.6505 28.8002 19.3947 28.8002 16C28.8002 12.6052 27.4516 9.34945 25.0512 6.94898C22.6507 4.54852 19.395 3.19995 16.0002 3.19995C12.6054 3.19995 9.34969 4.54852 6.94923 6.94898C4.54876 9.34945 3.2002 12.6052 3.2002 16C3.2002 19.3947 4.54876 22.6505 6.94923 25.0509C9.34969 27.4514 12.6054 28.7999 16.0002 28.7999V28.7999ZM21.9314 14.8688L17.1314 10.0688C16.8296 9.7773 16.4255 9.61603 16.006 9.61967C15.5864 9.62332 15.1851 9.79159 14.8885 10.0882C14.5918 10.3849 14.4236 10.7862 14.4199 11.2057C14.4163 11.6252 14.5775 12.0294 14.869 12.3312L16.9378 14.4H11.2002C10.7758 14.4 10.3689 14.5685 10.0688 14.8686C9.76877 15.1686 9.60019 15.5756 9.60019 16C9.60019 16.4243 9.76877 16.8313 10.0688 17.1313C10.3689 17.4314 10.7758 17.6 11.2002 17.6H16.9378L14.869 19.6688C14.7162 19.8163 14.5943 19.9929 14.5104 20.1881C14.4266 20.3833 14.3824 20.5933 14.3806 20.8057C14.3787 21.0182 14.4192 21.2288 14.4997 21.4255C14.5801 21.6221 14.6989 21.8008 14.8492 21.951C14.9994 22.1012 15.178 22.22 15.3747 22.3005C15.5713 22.3809 15.782 22.4214 15.9944 22.4196C16.2069 22.4177 16.4168 22.3736 16.612 22.2897C16.8072 22.2059 16.9838 22.084 17.1314 21.9311L21.9314 17.1311C22.2313 16.8311 22.3999 16.4242 22.3999 16C22.3999 15.5757 22.2313 15.1688 21.9314 14.8688V14.8688Z" fill="#0085FF"/>
</svg>
