<svg width="32" height="32" viewBox="0 0 32 32" fill="none" xmlns="http://www.w3.org/2000/svg">
<path fill-rule="evenodd" clip-rule="evenodd" d="M29.3337 16C29.3337 19.5362 27.9289 22.9276 25.4284 25.4281C22.9279 27.9285 19.5365 29.3333 16.0003 29.3333C12.4641 29.3333 9.07272 27.9285 6.57224 25.4281C4.07175 22.9276 2.66699 19.5362 2.66699 16C2.66699 12.4637 4.07175 9.07235 6.57224 6.57187C9.07272 4.07138 12.4641 2.66663 16.0003 2.66663C19.5365 2.66663 22.9279 4.07138 25.4284 6.57187C27.9289 9.07235 29.3337 12.4637 29.3337 16V16ZM17.667 9.33329C17.667 9.77532 17.4914 10.1992 17.1788 10.5118C16.8663 10.8244 16.4424 11 16.0003 11C15.5583 11 15.1344 10.8244 14.8218 10.5118C14.5093 10.1992 14.3337 9.77532 14.3337 9.33329C14.3337 8.89127 14.5093 8.46734 14.8218 8.15478C15.1344 7.84222 15.5583 7.66663 16.0003 7.66663C16.4424 7.66663 16.8663 7.84222 17.1788 8.15478C17.4914 8.46734 17.667 8.89127 17.667 9.33329ZM14.3337 14.3333C13.8916 14.3333 13.4677 14.5089 13.1551 14.8214C12.8426 15.134 12.667 15.5579 12.667 16C12.667 16.442 12.8426 16.8659 13.1551 17.1785C13.4677 17.491 13.8916 17.6666 14.3337 17.6666V22.6666C14.3337 23.1087 14.5093 23.5326 14.8218 23.8451C15.1344 24.1577 15.5583 24.3333 16.0003 24.3333H17.667C18.109 24.3333 18.5329 24.1577 18.8455 23.8451C19.1581 23.5326 19.3337 23.1087 19.3337 22.6666C19.3337 22.2246 19.1581 21.8007 18.8455 21.4881C18.5329 21.1756 18.109 21 17.667 21V16C17.667 15.5579 17.4914 15.134 17.1788 14.8214C16.8663 14.5089 16.4424 14.3333 16.0003 14.3333H14.3337Z" fill="#121721"/>
</svg>
