<svg width="32" height="32" viewBox="0 0 32 32" fill="none" xmlns="http://www.w3.org/2000/svg">
<path fill-rule="evenodd" clip-rule="evenodd" d="M16.0002 28.7999C19.395 28.7999 22.6507 27.4514 25.0512 25.0509C27.4516 22.6505 28.8002 19.3947 28.8002 16C28.8002 12.6052 27.4516 9.34945 25.0512 6.94898C22.6507 4.54852 19.395 3.19995 16.0002 3.19995C12.6054 3.19995 9.34969 4.54852 6.94923 6.94898C4.54876 9.34945 3.2002 12.6052 3.2002 16C3.2002 19.3947 4.54876 22.6505 6.94923 25.0509C9.34969 27.4514 12.6054 28.7999 16.0002 28.7999ZM13.9314 11.6688C13.6296 11.3773 13.2255 11.216 12.806 11.2197C12.3864 11.2233 11.9851 11.3916 11.6885 11.6882C11.3918 11.9849 11.2236 12.3862 11.2199 12.8057C11.2163 13.2252 11.3775 13.6294 11.669 13.9312L13.7378 16L11.669 18.0688C11.5162 18.2163 11.3943 18.3929 11.3104 18.5881C11.2266 18.7833 11.1824 18.9933 11.1806 19.2057C11.1787 19.4182 11.2192 19.6288 11.2997 19.8255C11.3801 20.0221 11.4989 20.2008 11.6492 20.351C11.7994 20.5012 11.978 20.62 12.1747 20.7005C12.3713 20.7809 12.582 20.8214 12.7944 20.8196C13.0069 20.8177 13.2168 20.7736 13.412 20.6897C13.6072 20.6059 13.7838 20.484 13.9314 20.3312L16.0002 18.2623L18.069 20.3312C18.3708 20.6226 18.7749 20.7839 19.1944 20.7802C19.6139 20.7766 20.0152 20.6083 20.3119 20.3117C20.6086 20.015 20.7768 19.6137 20.7805 19.1942C20.7841 18.7747 20.6228 18.3705 20.3314 18.0688L18.2626 16L20.3314 13.9312C20.6228 13.6294 20.7841 13.2252 20.7805 12.8057C20.7768 12.3862 20.6086 11.9849 20.3119 11.6882C20.0152 11.3916 19.6139 11.2233 19.1944 11.2197C18.7749 11.216 18.3708 11.3773 18.069 11.6688L16.0002 13.7376L13.9314 11.6688Z" fill="#7E8592"/>
</svg>
