<svg width="128" height="128" viewBox="0 0 128 128" fill="none" xmlns="http://www.w3.org/2000/svg">
<path fill-rule="evenodd" clip-rule="evenodd" d="M32.32 25.9199C40.7221 17.5178 52.1177 12.7976 64 12.7976C75.8823 12.7976 87.278 17.5178 95.68 25.9199C104.082 34.322 108.802 45.7176 108.802 57.5999C108.802 69.4822 104.082 80.8778 95.68 89.2799L64 120.96L32.32 89.2799C28.1595 85.1198 24.8591 80.1808 22.6074 74.7452C20.3557 69.3095 19.1968 63.4835 19.1968 57.5999C19.1968 51.7163 20.3557 45.8903 22.6074 40.4546C24.8591 35.0189 28.1595 30.08 32.32 25.9199ZM64 70.3999C67.3948 70.3999 70.6505 69.0513 73.051 66.6509C75.4514 64.2504 76.8 60.9947 76.8 57.5999C76.8 54.2051 75.4514 50.9494 73.051 48.5489C70.6505 46.1485 67.3948 44.7999 64 44.7999C60.6052 44.7999 57.3495 46.1485 54.949 48.5489C52.5486 50.9494 51.2 54.2051 51.2 57.5999C51.2 60.9947 52.5486 64.2504 54.949 66.6509C57.3495 69.0513 60.6052 70.3999 64 70.3999Z" fill="white"/>
<path d="M80 58.6666C80 67.5031 72.8366 74.6666 64 74.6666C55.1635 74.6666 48 67.5031 48 58.6666C48 49.83 55.1635 42.6666 64 42.6666C72.8366 42.6666 80 49.83 80 58.6666Z" fill="white"/>
<circle cx="64" cy="56" r="36" fill="#0085FF"/>
<path d="M77.0909 50H72.1818V44H49.2727C47.4645 44 46 45.3425 46 47V63.5H49.2727C49.2727 65.9825 51.4736 68 54.1818 68C56.89 68 59.0909 65.9825 59.0909 63.5H68.9091C68.9091 65.9825 71.11 68 73.8182 68C76.5264 68 78.7273 65.9825 78.7273 63.5H82V56L77.0909 50ZM54.1818 65.75C52.8236 65.75 51.7273 64.745 51.7273 63.5C51.7273 62.255 52.8236 61.25 54.1818 61.25C55.54 61.25 56.6364 62.255 56.6364 63.5C56.6364 64.745 55.54 65.75 54.1818 65.75ZM76.2727 52.25L79.4882 56H72.1818V52.25H76.2727ZM73.8182 65.75C72.46 65.75 71.3636 64.745 71.3636 63.5C71.3636 62.255 72.46 61.25 73.8182 61.25C75.1764 61.25 76.2727 62.255 76.2727 63.5C76.2727 64.745 75.1764 65.75 73.8182 65.75Z" fill="white"/>
</svg>
