<svg width="32" height="32" viewBox="0 0 32 32" fill="none" xmlns="http://www.w3.org/2000/svg">
<path fill-rule="evenodd" clip-rule="evenodd" d="M23.5115 19.7975C23.2115 20.0974 22.8046 20.2659 22.3803 20.2659C21.9561 20.2659 21.5492 20.0974 21.2491 19.7975L15.9803 14.5287L10.7115 19.7975C10.4098 20.0889 10.0056 20.2502 9.5861 20.2466C9.16658 20.2429 8.76528 20.0746 8.46863 19.778C8.17198 19.4813 8.00371 19.08 8.00006 18.6605C7.99642 18.241 8.15769 17.8368 8.44914 17.5351L14.8491 11.1351C15.1492 10.8351 15.5561 10.6666 15.9803 10.6666C16.4046 10.6666 16.8115 10.8351 17.1115 11.1351L23.5115 17.5351C23.8115 17.8351 23.98 18.242 23.98 18.6663C23.98 19.0905 23.8115 19.4974 23.5115 19.7975Z" fill="#FF8500"/>
</svg>
