<svg width="32" height="32" viewBox="0 0 32 32" fill="none" xmlns="http://www.w3.org/2000/svg">
<path fill-rule="evenodd" clip-rule="evenodd" d="M16.0001 29.3334C23.3639 29.3334 29.3334 23.3639 29.3334 16.0001C29.3334 8.63628 23.3639 2.66675 16.0001 2.66675C8.63628 2.66675 2.66675 8.63628 2.66675 16.0001C2.66675 23.3639 8.63628 29.3334 16.0001 29.3334ZM9.60008 12.0201C9.17582 12.0201 8.76892 12.1886 8.46888 12.4885C8.16893 12.7886 8.00042 13.1955 8.00042 13.6197C8.00042 14.044 8.16893 14.4509 8.46888 14.7509L14.8689 21.1509C15.1689 21.4509 15.5758 21.6194 16.0001 21.6194C16.4243 21.6194 16.8312 21.4509 17.1313 21.1509L23.5313 14.7509C23.6841 14.6033 23.806 14.4268 23.8898 14.2316C23.9737 14.0364 24.0178 13.8264 24.0197 13.614C24.0215 13.4015 23.981 13.1908 23.9006 12.9942C23.8201 12.7976 23.7013 12.6189 23.5511 12.4687C23.4009 12.3185 23.2222 12.1997 23.0256 12.1192C22.829 12.0388 22.6183 11.9983 22.4058 12.0001C22.1934 12.002 21.9834 12.0461 21.7882 12.13C21.593 12.2138 21.4165 12.3357 21.2689 12.4885L16.0001 17.7573L10.7313 12.4885C10.4312 12.1886 10.0243 12.0201 9.60008 12.0201Z" fill="#FF8500"/>
</svg>
