<svg width="32" height="32" viewBox="0 0 32 32" fill="none" xmlns="http://www.w3.org/2000/svg">
<path fill-rule="evenodd" clip-rule="evenodd" d="M16 29.3334C23.3638 29.3334 29.3333 23.3639 29.3333 16.0001C29.3333 8.63628 23.3638 2.66675 16 2.66675C8.6362 2.66675 2.66667 8.63628 2.66667 16.0001C2.66667 23.3639 8.6362 29.3334 16 29.3334ZM22.3803 20.2661C22.8046 20.2661 23.2115 20.0976 23.5115 19.7976C23.8115 19.4976 23.98 19.0907 23.98 18.6664C23.98 18.2421 23.8115 17.8352 23.5115 17.5352L17.1115 11.1352C16.8115 10.8353 16.4046 10.6667 15.9803 10.6667C15.5561 10.6667 15.1492 10.8353 14.8491 11.1352L8.44914 17.5352C8.15769 17.837 7.99642 18.2411 8.00006 18.6606C8.00371 19.0802 8.17198 19.4815 8.46863 19.7781C8.76528 20.0748 9.16658 20.243 9.5861 20.2467C10.0056 20.2503 10.4098 20.0891 10.7115 19.7976L15.9803 14.5288L21.2491 19.7976C21.5492 20.0976 21.9561 20.2661 22.3803 20.2661Z" fill="#FF8500"/>
</svg>
