<svg width="36" height="36" viewBox="0 0 36 36" fill="none" xmlns="http://www.w3.org/2000/svg">
<path fill-rule="evenodd" clip-rule="evenodd" d="M17.9999 35.5999C22.6677 35.5999 27.1443 33.7456 30.445 30.445C33.7456 27.1443 35.5999 22.6677 35.5999 17.9999C35.5999 13.3321 33.7456 8.85546 30.445 5.55482C27.1443 2.25418 22.6677 0.399902 17.9999 0.399902C13.3321 0.399902 8.85546 2.25418 5.55482 5.55482C2.25418 8.85546 0.399902 13.3321 0.399902 17.9999C0.399902 22.6677 2.25418 27.1443 5.55482 30.445C8.85546 33.7456 13.3321 35.5999 17.9999 35.5999ZM15.1553 12.0445C14.7404 11.6438 14.1847 11.422 13.6078 11.427C13.031 11.432 12.4792 11.6634 12.0713 12.0713C11.6634 12.4792 11.432 13.031 11.427 13.6078C11.422 14.1847 11.6438 14.7404 12.0445 15.1553L14.8891 17.9999L12.0445 20.8445C11.8344 21.0474 11.6668 21.2902 11.5515 21.5586C11.4362 21.827 11.3755 22.1157 11.3729 22.4078C11.3704 22.6999 11.4261 22.9896 11.5367 23.26C11.6473 23.5304 11.8107 23.776 12.0172 23.9826C12.2238 24.1891 12.4694 24.3525 12.7398 24.4631C13.0102 24.5737 13.2999 24.6294 13.592 24.6269C13.8841 24.6243 14.1728 24.5636 14.4412 24.4483C14.7096 24.333 14.9524 24.1654 15.1553 23.9553L17.9999 21.1107L20.8445 23.9553C21.2594 24.3561 21.8151 24.5778 22.392 24.5728C22.9688 24.5678 23.5206 24.3364 23.9285 23.9285C24.3364 23.5206 24.5678 22.9688 24.5728 22.392C24.5778 21.8152 24.356 21.2594 23.9553 20.8445L21.1107 17.9999L23.9553 15.1553C24.356 14.7404 24.5778 14.1847 24.5728 13.6078C24.5678 13.031 24.3364 12.4792 23.9285 12.0713C23.5206 11.6634 22.9688 11.432 22.392 11.427C21.8151 11.422 21.2594 11.6438 20.8445 12.0445L17.9999 14.8891L15.1553 12.0445Z" fill="#4B5569"/>
</svg>
