<svg width="24" height="24" viewBox="0 0 24 24" fill="none" xmlns="http://www.w3.org/2000/svg">
<path fill-rule="evenodd" clip-rule="evenodd" d="M16.0909 8H18.5455L21 11V14.75H19.9923C19.8633 12.6573 18.1252 11 16 11C13.8748 11 12.1367 12.6573 12.0077 14.75H9.54545C9.54545 15.9913 8.445 17 7.09091 17C5.73682 17 4.63636 15.9913 4.63636 14.75H3V6.5C3 5.67125 3.73227 5 4.63636 5H16.0909V8ZM5.86364 14.75C5.86364 15.3725 6.41182 15.875 7.09091 15.875C7.77 15.875 8.31818 15.3725 8.31818 14.75C8.31818 14.1275 7.77 13.625 7.09091 13.625C6.41182 13.625 5.86364 14.1275 5.86364 14.75ZM19.7441 11L18.1364 9.125H16.0909V11H19.7441Z" fill="#0085FF"/>
<path d="M22.1245 21.2326L22.1244 21.2327C22.3681 21.485 22.503 21.8229 22.4999 22.1737C22.4969 22.5245 22.3562 22.8601 22.1081 23.1082C21.8601 23.3562 21.5245 23.4969 21.1737 23.4999C20.8229 23.503 20.4849 23.3682 20.2326 23.1244L20.2264 23.1184L20.2264 23.1184L17.8746 20.7667C17.1302 21.2139 16.289 21.4806 15.4188 21.5423C14.4066 21.6142 13.3942 21.406 12.4925 20.9407C11.5908 20.4753 10.8346 19.7708 10.3068 18.9042C9.77895 18.0377 9.49983 17.0426 9.5 16.028L22.1245 21.2326ZM22.1245 21.2326L22.1183 21.2265M22.1245 21.2326L22.1183 21.2265M22.1183 21.2265L19.7657 18.8739C20.139 18.2526 20.3873 17.5626 20.4946 16.8429C20.623 15.9825 20.5465 15.104 20.2712 14.2787C19.996 13.4535 19.5299 12.7049 18.9108 12.0938C18.2917 11.4826 17.5371 11.0262 16.7084 10.7617C15.8796 10.4972 15.0001 10.432 14.1415 10.5715C13.2828 10.7109 12.4691 11.0511 11.7667 11.5643C11.0642 12.0774 10.4929 12.7492 10.099 13.5248C9.70514 14.3004 9.49991 15.158 9.5 16.0278L22.1183 21.2265ZM13.0111 14.0116C13.5459 13.4768 14.2712 13.1764 15.0276 13.1764C15.7839 13.1764 16.5092 13.4768 17.044 14.0116C17.5788 14.5464 17.8793 15.2717 17.8793 16.0279C17.8793 16.7842 17.5788 17.5095 17.044 18.0443C16.5092 18.579 15.7839 18.8795 15.0276 18.8795C14.2712 18.8795 13.5459 18.579 13.0111 18.0443C12.4763 17.5095 12.1759 16.7842 12.1759 16.0279C12.1759 15.2717 12.4763 14.5464 13.0111 14.0116Z" fill="#0085FF" stroke="#F5FAFE"/>
</svg>
