<svg width="32" height="32" viewBox="0 0 32 32" fill="none" xmlns="http://www.w3.org/2000/svg">
<path d="M29.6034 5.51709H2.39656C1.07294 5.51709 0 6.59003 0 7.91365V24.0862C0 25.4097 1.07294 26.4827 2.39656 26.4827H29.6034C30.927 26.4827 32 25.4098 32 24.0862V7.91365C32 6.59003 30.9271 5.51709 29.6034 5.51709Z" fill="#FF4B55"/>
<path d="M15.8422 14.1093L16.707 15.2407L18.0573 14.7887C18.1328 14.7633 18.1971 14.8488 18.1519 14.9143L17.3432 16.0863L18.1904 17.231C18.2378 17.295 18.1764 17.3824 18.1002 17.3597L16.7355 16.9527L15.9088 18.1121C15.8626 18.1769 15.7603 18.1456 15.7584 18.066L15.7237 16.6425L14.3656 16.2144C14.2897 16.1905 14.2878 16.0836 14.363 16.0572L15.7062 15.5843L15.6935 14.1604C15.6927 14.0808 15.7938 14.0462 15.8422 14.1093Z" fill="#F5F5F5"/>
<path d="M11.0598 20.4163C8.6226 20.4163 6.6456 18.4393 6.6456 15.9999C6.6456 13.565 8.62266 11.5835 11.0598 11.5835C11.9665 11.5835 12.8027 11.8624 13.4997 12.3344C13.6064 12.4066 13.7282 12.2664 13.6389 12.1736C12.5974 11.0908 11.1234 10.4302 9.48898 10.4859C6.6811 10.5818 4.3566 12.833 4.17717 15.6368C3.97167 18.8483 6.51454 21.5172 9.68054 21.5172C11.2401 21.5172 12.6417 20.8652 13.6426 19.8228C13.731 19.7306 13.609 19.5926 13.5033 19.6642C12.8057 20.1372 11.9681 20.4163 11.0598 20.4163Z" fill="#F5F5F5"/>
</svg>
