<svg width="32" height="32" viewBox="0 0 32 32" fill="none" xmlns="http://www.w3.org/2000/svg">
<path d="M29.6034 5.51733H2.39656C1.07294 5.51733 0 6.59027 0 7.9139V24.0863C0 25.4099 1.07294 26.4829 2.39656 26.4829H29.6034C30.927 26.4829 32 25.41 32 24.0863V7.9139C32 6.59027 30.9271 5.51733 29.6034 5.51733Z" fill="#41479B"/>
<path d="M31.9668 7.51753C31.7779 6.38259 30.792 5.51709 29.6034 5.51709H28.9799L18.7586 12.2138V5.51715H13.2414V12.2138L3.02012 5.51715H2.39656C1.208 5.51715 0.222062 6.38259 0.0331875 7.51759L8.76931 13.2413H0V18.7586H8.76931L0.0331875 24.4822C0.222062 25.6172 1.208 26.4827 2.39656 26.4827H3.02012L13.2414 19.786V26.4827H18.7586V19.786L28.9799 26.4827H29.6034C30.792 26.4827 31.7779 25.6172 31.9668 24.4822L23.2307 18.7585H32V13.2412H23.2307L31.9668 7.51753Z" fill="#F5F5F5"/>
<path d="M17.6552 5.51733H14.3448V14.3449H0V17.6553H14.3448V26.4828H17.6552V17.6553H32V14.3449H17.6552V5.51733Z" fill="#FF4B55"/>
<path d="M1.54972 26.3284L13.2112 18.7588H11.1844L0.57666 25.6445C0.836223 25.9475 1.16979 26.1849 1.54972 26.3284Z" fill="#FF4B55"/>
<path d="M21.6493 18.7588H19.6226L30.9173 26.0904C31.2334 25.8828 31.4971 25.6024 31.6852 25.2732L21.6493 18.7588Z" fill="#FF4B55"/>
<path d="M0.25293 6.8423L10.1111 13.2415H12.1378L0.967055 5.99023C0.667117 6.21348 0.42168 6.50536 0.25293 6.8423Z" fill="#FF4B55"/>
<path d="M20.7855 13.2415L31.4127 6.34306C31.1503 6.04112 30.8141 5.80512 30.4315 5.66431L18.7588 13.2415H20.7855Z" fill="#FF4B55"/>
</svg>
