<svg width="32" height="32" viewBox="0 0 32 32" fill="none" xmlns="http://www.w3.org/2000/svg">
<path d="M29.6034 5.51733H2.39656C1.07294 5.51733 0 6.59027 0 7.9139V24.0863C0 25.4099 1.07294 26.4829 2.39656 26.4829H29.6034C30.927 26.4829 32 25.41 32 24.0863V7.9139C32 6.59027 30.9271 5.51733 29.6034 5.51733Z" fill="#F5F5F5"/>
<path d="M0.131836 7.13008H31.8681C31.5434 6.19152 30.6524 5.51733 29.6034 5.51733H2.39659C1.34759 5.51733 0.456648 6.19152 0.131836 7.13008Z" fill="#FF4B55"/>
<path d="M32 11.9683H0V13.5809H32V11.9683Z" fill="#FF4B55"/>
<path d="M32 8.74268H0V10.3554H32V8.74268Z" fill="#FF4B55"/>
<path d="M0 16.2546C0 16.5593 0.247063 16.8063 0.55175 16.8063H32V15.1936H0V16.2546Z" fill="#FF4B55"/>
<path d="M32 21.645H0V23.2578H32V21.645Z" fill="#FF4B55"/>
<path d="M31.8682 24.8701H0.131836C0.456648 25.8087 1.34765 26.4829 2.39659 26.4829H29.6034C30.6524 26.4829 31.5434 25.8087 31.8682 24.8701Z" fill="#FF4B55"/>
<path d="M32 18.4194H0V20.0321H32V18.4194Z" fill="#FF4B55"/>
<path d="M0.55175 16.8063H14.3449C14.6496 16.8063 14.8966 16.5592 14.8966 16.2545V6.06884C14.8966 5.76409 14.6496 5.51709 14.3449 5.51709H2.39656C1.07294 5.51715 0 6.59009 0 7.91371V16.2545C0 16.5593 0.247063 16.8063 0.55175 16.8063Z" fill="#41479B"/>
<path d="M1.54915 6.78386L1.67127 7.15011L2.05733 7.15305C2.10733 7.15349 2.12802 7.21724 2.08783 7.24692L1.77727 7.47624L1.89377 7.8443C1.9089 7.89192 1.85458 7.93142 1.8139 7.9023L1.49983 7.67786L1.18577 7.90236C1.14508 7.93149 1.0909 7.89199 1.1059 7.84436L1.2224 7.4763L0.911835 7.24699C0.871647 7.21724 0.892335 7.15349 0.942335 7.15311L1.3284 7.15017L1.45052 6.78392C1.46627 6.73642 1.53327 6.73642 1.54915 6.78386Z" fill="#F5F5F5"/>
<path d="M1.54915 8.69959L1.67127 9.06584L2.05733 9.06878C2.10733 9.06921 2.12802 9.1329 2.08783 9.16265L1.77727 9.39203L1.89377 9.76009C1.9089 9.80772 1.85458 9.84722 1.8139 9.8181L1.49983 9.59366L1.18577 9.81816C1.14508 9.84722 1.0909 9.80778 1.1059 9.76016L1.2224 9.39209L0.911835 9.16271C0.871647 9.13296 0.892335 9.06928 0.942335 9.06884L1.3284 9.0659L1.45052 8.69965C1.46627 8.65221 1.53327 8.65221 1.54915 8.69959Z" fill="#F5F5F5"/>
<path d="M1.54915 10.6154L1.67127 10.9817L2.05733 10.9846C2.10733 10.985 2.12802 11.0487 2.08783 11.0785L1.77727 11.3078L1.89377 11.6759C1.9089 11.7235 1.85458 11.763 1.8139 11.7339L1.49983 11.5095L1.18577 11.734C1.14508 11.763 1.0909 11.7237 1.1059 11.676L1.2224 11.3079L0.911835 11.0785C0.871647 11.0488 0.892335 10.9851 0.942335 10.9847L1.3284 10.9817L1.45052 10.6155C1.46627 10.568 1.53327 10.568 1.54915 10.6154Z" fill="#F5F5F5"/>
<path d="M1.54915 12.5314L1.67127 12.8977L2.05733 12.9006C2.10733 12.901 2.12802 12.9648 2.08783 12.9945L1.77727 13.2239L1.89377 13.5919C1.9089 13.6395 1.85458 13.679 1.8139 13.6499L1.49983 13.4255L1.18577 13.65C1.14508 13.679 1.0909 13.6396 1.1059 13.592L1.2224 13.2239L0.911835 12.9945C0.871647 12.9649 0.892335 12.9011 0.942335 12.9007L1.3284 12.8977L1.45052 12.5315C1.46627 12.484 1.53327 12.484 1.54915 12.5314Z" fill="#F5F5F5"/>
<path d="M1.54915 14.4471L1.67127 14.8134L2.05733 14.8163C2.10733 14.8168 2.12802 14.8805 2.08783 14.9102L1.77727 15.1396L1.89377 15.5076C1.9089 15.5553 1.85458 15.5948 1.8139 15.5656L1.49983 15.3412L1.18577 15.5657C1.14508 15.5948 1.0909 15.5553 1.1059 15.5077L1.2224 15.1396L0.911835 14.9103C0.871647 14.8805 0.892335 14.8168 0.942335 14.8164L1.3284 14.8135L1.45052 14.4472C1.46627 14.3998 1.53327 14.3998 1.54915 14.4471Z" fill="#F5F5F5"/>
<path d="M3.03596 7.72279L3.15809 8.08904L3.54415 8.09198C3.59415 8.09241 3.61484 8.15617 3.57465 8.18585L3.26409 8.41523L3.38059 8.78329C3.39571 8.83092 3.3414 8.87042 3.30071 8.84129L2.98665 8.61679L2.67259 8.84129C2.6319 8.87036 2.57771 8.83092 2.59271 8.78329L2.70921 8.41523L2.39865 8.18585C2.35846 8.1561 2.37915 8.09241 2.42915 8.09198L2.81521 8.08904L2.93734 7.72279C2.95309 7.67541 3.02015 7.67541 3.03596 7.72279Z" fill="#F5F5F5"/>
<path d="M3.03596 9.63885L3.15809 10.0051L3.54415 10.008C3.59415 10.0085 3.61484 10.0722 3.57465 10.1019L3.26409 10.3313L3.38059 10.6993C3.39571 10.747 3.3414 10.7865 3.30071 10.7574L2.98665 10.5328L2.67259 10.7574C2.6319 10.7864 2.57771 10.747 2.59271 10.6993L2.70921 10.3313L2.39865 10.1019C2.35846 10.0723 2.37915 10.0085 2.42915 10.008L2.81521 10.0051L2.93734 9.63885C2.95309 9.59141 3.02015 9.59141 3.03596 9.63885Z" fill="#F5F5F5"/>
<path d="M3.03596 11.5546L3.15809 11.9209L3.54415 11.9238C3.59415 11.9242 3.61484 11.9879 3.57465 12.0177L3.26409 12.2471L3.38059 12.6151C3.39571 12.6628 3.3414 12.7023 3.30071 12.6731L2.98665 12.4486L2.67259 12.6731C2.6319 12.7022 2.57771 12.6628 2.59271 12.6151L2.70921 12.2471L2.39865 12.0177C2.35846 11.9879 2.37915 11.9242 2.42915 11.9238L2.81521 11.9209L2.93734 11.5546C2.95309 11.5072 3.02015 11.5072 3.03596 11.5546Z" fill="#F5F5F5"/>
<path d="M3.03596 13.4706L3.15809 13.8368L3.54415 13.8398C3.59415 13.8402 3.61484 13.9039 3.57465 13.9337L3.26409 14.163L3.38059 14.5311C3.39571 14.5787 3.3414 14.6182 3.30071 14.5891L2.98665 14.3646L2.67259 14.5891C2.6319 14.6182 2.57771 14.5787 2.59271 14.5311L2.70921 14.163L2.39865 13.9337C2.35846 13.9039 2.37915 13.8402 2.42915 13.8398L2.81521 13.8368L2.93734 13.4706C2.95309 13.4232 3.02015 13.4232 3.03596 13.4706Z" fill="#F5F5F5"/>
<path d="M4.52327 6.78363L4.64539 7.14988L5.03145 7.15281C5.08145 7.15325 5.10214 7.217 5.06195 7.24669L4.75139 7.476L4.86789 7.84406C4.88302 7.89169 4.8287 7.93119 4.78802 7.90206L4.47395 7.67756L4.15989 7.90206C4.11921 7.93119 4.06502 7.89169 4.08002 7.84406L4.19652 7.476L3.88596 7.24669C3.84577 7.21694 3.86646 7.15319 3.91646 7.15281L4.30252 7.14988L4.42464 6.78363C4.44039 6.73619 4.50745 6.73619 4.52327 6.78363Z" fill="#F5F5F5"/>
<path d="M4.52327 8.69959L4.64539 9.06584L5.03145 9.06878C5.08145 9.06922 5.10214 9.13291 5.06195 9.16266L4.75139 9.39203L4.86789 9.76009C4.88302 9.80772 4.8287 9.84722 4.78802 9.81809L4.47395 9.59359L4.15989 9.81809C4.11921 9.84715 4.06502 9.80772 4.08002 9.76009L4.19652 9.39203L3.88596 9.16266C3.84577 9.13291 3.86646 9.06922 3.91646 9.06878L4.30252 9.06584L4.42464 8.69959C4.44039 8.65222 4.50745 8.65222 4.52327 8.69959Z" fill="#F5F5F5"/>
<path d="M4.52327 10.6154L4.64539 10.9817L5.03145 10.9846C5.08145 10.985 5.10214 11.0487 5.06195 11.0785L4.75139 11.3079L4.86789 11.6759C4.88302 11.7235 4.8287 11.763 4.78802 11.7339L4.47395 11.5094L4.15989 11.7339C4.11921 11.763 4.06502 11.7236 4.08002 11.6759L4.19652 11.3079L3.88596 11.0785C3.84577 11.0487 3.86646 10.985 3.91646 10.9846L4.30252 10.9817L4.42464 10.6154C4.44039 10.568 4.50745 10.568 4.52327 10.6154Z" fill="#F5F5F5"/>
<path d="M4.52327 12.5312L4.64539 12.8974L5.03145 12.9004C5.08145 12.9008 5.10214 12.9646 5.06195 12.9942L4.75139 13.2236L4.86789 13.5917C4.88302 13.6393 4.8287 13.6788 4.78802 13.6497L4.47395 13.4252L4.15989 13.6497C4.11921 13.6788 4.06502 13.6393 4.08002 13.5917L4.19652 13.2236L3.88596 12.9942C3.84577 12.9646 3.86646 12.9008 3.91646 12.9004L4.30252 12.8974L4.42464 12.5312C4.44039 12.4837 4.50745 12.4837 4.52327 12.5312Z" fill="#F5F5F5"/>
<path d="M4.52327 14.4472L4.64539 14.8134L5.03145 14.8163C5.08145 14.8168 5.10214 14.8805 5.06195 14.9102L4.75139 15.1396L4.86789 15.5076C4.88302 15.5553 4.8287 15.5948 4.78802 15.5656L4.47395 15.3411L4.15989 15.5656C4.11921 15.5947 4.06502 15.5553 4.08002 15.5076L4.19652 15.1396L3.88596 14.9102C3.84577 14.8805 3.86646 14.8168 3.91646 14.8163L4.30252 14.8134L4.42464 14.4472C4.44039 14.3998 4.50745 14.3998 4.52327 14.4472Z" fill="#F5F5F5"/>
<path d="M6.01057 7.72279L6.1327 8.08904L6.51876 8.09198C6.56876 8.09241 6.58945 8.15617 6.54926 8.18585L6.2387 8.41523L6.3552 8.78329C6.37032 8.83092 6.31601 8.87042 6.27532 8.84129L5.96126 8.61679L5.6472 8.84129C5.60651 8.87036 5.55232 8.83092 5.56732 8.78329L5.68382 8.41523L5.37326 8.18585C5.33307 8.1561 5.35376 8.09241 5.40376 8.09198L5.78982 8.08904L5.91195 7.72279C5.92764 7.67541 5.99476 7.67541 6.01057 7.72279Z" fill="#F5F5F5"/>
<path d="M6.01057 9.63885L6.1327 10.0051L6.51876 10.008C6.56876 10.0085 6.58945 10.0722 6.54926 10.1019L6.2387 10.3313L6.3552 10.6993C6.37032 10.747 6.31601 10.7865 6.27532 10.7574L5.96126 10.5328L5.6472 10.7574C5.60651 10.7864 5.55232 10.747 5.56732 10.6993L5.68382 10.3313L5.37326 10.1019C5.33307 10.0723 5.35376 10.0085 5.40376 10.008L5.78982 10.0051L5.91195 9.63885C5.92764 9.59141 5.99476 9.59141 6.01057 9.63885Z" fill="#F5F5F5"/>
<path d="M6.01057 11.5546L6.1327 11.9209L6.51876 11.9238C6.56876 11.9242 6.58945 11.9879 6.54926 12.0177L6.2387 12.2471L6.3552 12.6151C6.37032 12.6628 6.31601 12.7023 6.27532 12.6731L5.96126 12.4486L5.6472 12.6731C5.60651 12.7022 5.55232 12.6628 5.56732 12.6151L5.68382 12.2471L5.37326 12.0177C5.33307 11.9879 5.35376 11.9242 5.40376 11.9238L5.78982 11.9209L5.91195 11.5546C5.92764 11.5072 5.99476 11.5072 6.01057 11.5546Z" fill="#F5F5F5"/>
<path d="M6.01057 13.4706L6.1327 13.8368L6.51876 13.8398C6.56876 13.8402 6.58945 13.9039 6.54926 13.9337L6.2387 14.163L6.3552 14.5311C6.37032 14.5787 6.31601 14.6182 6.27532 14.5891L5.96126 14.3646L5.6472 14.5891C5.60651 14.6182 5.55232 14.5787 5.56732 14.5311L5.68382 14.163L5.37326 13.9337C5.33307 13.9039 5.35376 13.8402 5.40376 13.8398L5.78982 13.8368L5.91195 13.4706C5.92764 13.4232 5.99476 13.4232 6.01057 13.4706Z" fill="#F5F5F5"/>
<path d="M7.49745 6.78362L7.61958 7.14987L8.00564 7.1528C8.05564 7.15324 8.07633 7.21699 8.03614 7.24668L7.72558 7.47599L7.84208 7.84405C7.8572 7.89168 7.80289 7.93118 7.7622 7.90205L7.44808 7.67762L7.13402 7.90212C7.09333 7.93124 7.03914 7.89174 7.05414 7.84412L7.17064 7.47605L6.86008 7.24674C6.81989 7.21699 6.84058 7.15324 6.89058 7.15287L7.27664 7.14993L7.39877 6.78368C7.41458 6.73618 7.48164 6.73618 7.49745 6.78362Z" fill="#F5F5F5"/>
<path d="M7.49745 8.69959L7.61958 9.06584L8.00564 9.06878C8.05564 9.06922 8.07633 9.13291 8.03614 9.16266L7.72558 9.39203L7.84208 9.76009C7.8572 9.80772 7.80289 9.84722 7.7622 9.81809L7.44808 9.59359L7.13402 9.81809C7.09333 9.84715 7.03914 9.80772 7.05414 9.76009L7.17064 9.39203L6.86008 9.16266C6.81989 9.13291 6.84058 9.06922 6.89058 9.06878L7.27664 9.06584L7.39877 8.69959C7.41458 8.65222 7.48164 8.65222 7.49745 8.69959Z" fill="#F5F5F5"/>
<path d="M7.49745 10.6154L7.61958 10.9817L8.00564 10.9846C8.05564 10.985 8.07633 11.0487 8.03614 11.0785L7.72558 11.3079L7.84208 11.6759C7.8572 11.7235 7.80289 11.763 7.7622 11.7339L7.44808 11.5094L7.13402 11.7339C7.09333 11.7629 7.03914 11.7235 7.05414 11.6759L7.17064 11.3078L6.86008 11.0784C6.81989 11.0487 6.84058 10.985 6.89058 10.9845L7.27664 10.9816L7.39877 10.6154C7.41458 10.568 7.48164 10.568 7.49745 10.6154Z" fill="#F5F5F5"/>
<path d="M7.49745 12.5312L7.61958 12.8974L8.00564 12.9004C8.05564 12.9008 8.07633 12.9646 8.03614 12.9942L7.72558 13.2236L7.84208 13.5917C7.8572 13.6393 7.80289 13.6788 7.7622 13.6497L7.44808 13.4252L7.13402 13.6497C7.09333 13.6788 7.03914 13.6393 7.05414 13.5917L7.17064 13.2236L6.86008 12.9942C6.81989 12.9646 6.84058 12.9008 6.89058 12.9004L7.27664 12.8974L7.39877 12.5312C7.41458 12.4837 7.48164 12.4837 7.49745 12.5312Z" fill="#F5F5F5"/>
<path d="M7.49745 14.4472L7.61958 14.8134L8.00564 14.8163C8.05564 14.8168 8.07633 14.8805 8.03614 14.9102L7.72558 15.1396L7.84208 15.5076C7.8572 15.5553 7.80289 15.5948 7.7622 15.5656L7.44808 15.3411L7.13402 15.5656C7.09333 15.5947 7.03914 15.5553 7.05414 15.5076L7.17064 15.1396L6.86008 14.9102C6.81989 14.8805 6.84058 14.8168 6.89058 14.8163L7.27664 14.8134L7.39877 14.4472C7.41458 14.3998 7.48164 14.3998 7.49745 14.4472Z" fill="#F5F5F5"/>
<path d="M8.9847 7.72279L9.10682 8.08904L9.49289 8.09198C9.54289 8.09241 9.56358 8.15617 9.52339 8.18585L9.21283 8.41523L9.32933 8.78329C9.34445 8.83092 9.29014 8.87042 9.24945 8.84129L8.93539 8.61679L8.62132 8.84129C8.58063 8.87036 8.52645 8.83092 8.54145 8.78329L8.65795 8.41523L8.34738 8.18585C8.30719 8.1561 8.32788 8.09241 8.37788 8.09198L8.76395 8.08904L8.88607 7.72279C8.90189 7.67541 8.96889 7.67541 8.9847 7.72279Z" fill="#F5F5F5"/>
<path d="M8.9847 9.63885L9.10682 10.0051L9.49289 10.008C9.54289 10.0085 9.56358 10.0722 9.52339 10.1019L9.21283 10.3313L9.32933 10.6993C9.34445 10.747 9.29014 10.7865 9.24945 10.7574L8.93539 10.5328L8.62132 10.7574C8.58063 10.7864 8.52645 10.747 8.54145 10.6993L8.65795 10.3313L8.34738 10.1019C8.30719 10.0723 8.32788 10.0085 8.37788 10.008L8.76395 10.0051L8.88607 9.63885C8.90189 9.59141 8.96889 9.59141 8.9847 9.63885Z" fill="#F5F5F5"/>
<path d="M8.9847 11.5546L9.10682 11.9209L9.49289 11.9238C9.54289 11.9242 9.56358 11.9879 9.52339 12.0177L9.21283 12.2471L9.32933 12.6151C9.34445 12.6628 9.29014 12.7023 9.24945 12.6731L8.93539 12.4486L8.62132 12.6731C8.58063 12.7022 8.52645 12.6628 8.54145 12.6151L8.65795 12.2471L8.34738 12.0177C8.30719 11.9879 8.32788 11.9242 8.37788 11.9238L8.76395 11.9209L8.88607 11.5546C8.90189 11.5072 8.96889 11.5072 8.9847 11.5546Z" fill="#F5F5F5"/>
<path d="M8.9847 13.4706L9.10682 13.8368L9.49289 13.8398C9.54289 13.8402 9.56358 13.9039 9.52339 13.9337L9.21283 14.163L9.32933 14.5311C9.34445 14.5787 9.29014 14.6182 9.24945 14.5891L8.93539 14.3646L8.62132 14.5891C8.58063 14.6182 8.52645 14.5787 8.54145 14.5311L8.65795 14.163L8.34738 13.9337C8.30719 13.9039 8.32788 13.8402 8.37788 13.8398L8.76395 13.8368L8.88607 13.4706C8.90189 13.4232 8.96889 13.4232 8.9847 13.4706Z" fill="#F5F5F5"/>
<path d="M10.4715 6.78363L10.5936 7.14988L10.9797 7.15281C11.0297 7.15325 11.0504 7.217 11.0102 7.24669L10.6996 7.476L10.8161 7.84406C10.8313 7.89169 10.777 7.93119 10.7363 7.90206L10.4222 7.67756L10.1081 7.90206C10.0675 7.93119 10.0133 7.89169 10.0283 7.84406L10.1448 7.476L9.8342 7.24669C9.79401 7.21694 9.8147 7.15319 9.8647 7.15281L10.2508 7.14988L10.3729 6.78363C10.3886 6.73619 10.4557 6.73619 10.4715 6.78363Z" fill="#F5F5F5"/>
<path d="M10.4715 8.69959L10.5936 9.06584L10.9797 9.06878C11.0297 9.06922 11.0504 9.13291 11.0102 9.16266L10.6996 9.39203L10.8161 9.76009C10.8313 9.80772 10.777 9.84722 10.7363 9.81809L10.4222 9.59359L10.1081 9.81809C10.0675 9.84715 10.0133 9.80772 10.0283 9.76009L10.1448 9.39203L9.8342 9.16266C9.79401 9.13291 9.8147 9.06922 9.8647 9.06878L10.2508 9.06584L10.3729 8.69959C10.3886 8.65222 10.4557 8.65222 10.4715 8.69959Z" fill="#F5F5F5"/>
<path d="M10.4715 10.6154L10.5936 10.9817L10.9797 10.9846C11.0297 10.985 11.0504 11.0487 11.0102 11.0785L10.6996 11.3079L10.8161 11.6759C10.8313 11.7235 10.777 11.763 10.7363 11.7339L10.4222 11.5094L10.1081 11.7339C10.0675 11.763 10.0133 11.7236 10.0283 11.6759L10.1448 11.3079L9.8342 11.0785C9.79401 11.0487 9.8147 10.985 9.8647 10.9846L10.2508 10.9817L10.3729 10.6154C10.3886 10.568 10.4557 10.568 10.4715 10.6154Z" fill="#F5F5F5"/>
<path d="M10.4715 12.5312L10.5936 12.8974L10.9797 12.9004C11.0297 12.9008 11.0504 12.9646 11.0102 12.9942L10.6996 13.2236L10.8161 13.5917C10.8313 13.6393 10.777 13.6788 10.7363 13.6497L10.4222 13.4252L10.1081 13.6497C10.0675 13.6788 10.0133 13.6393 10.0283 13.5917L10.1448 13.2236L9.8342 12.9942C9.79401 12.9646 9.8147 12.9008 9.8647 12.9004L10.2508 12.8974L10.3729 12.5312C10.3886 12.4837 10.4557 12.4837 10.4715 12.5312Z" fill="#F5F5F5"/>
<path d="M10.4715 14.4472L10.5936 14.8134L10.9797 14.8163C11.0297 14.8168 11.0504 14.8805 11.0102 14.9102L10.6996 15.1396L10.8161 15.5076C10.8313 15.5553 10.777 15.5948 10.7363 15.5656L10.4222 15.3411L10.1081 15.5656C10.0675 15.5947 10.0133 15.5553 10.0283 15.5076L10.1448 15.1396L9.8342 14.9102C9.79401 14.8805 9.8147 14.8168 9.8647 14.8163L10.2508 14.8134L10.3729 14.4472C10.3886 14.3998 10.4557 14.3998 10.4715 14.4472Z" fill="#F5F5F5"/>
<path d="M11.9588 7.72279L12.0809 8.08904L12.467 8.09198C12.517 8.09241 12.5377 8.15617 12.4975 8.18585L12.1869 8.41523L12.3034 8.78329C12.3186 8.83092 12.2642 8.87042 12.2236 8.84129L11.9095 8.61679L11.5954 8.84129C11.5548 8.87036 11.5006 8.83092 11.5156 8.78329L11.6321 8.41523L11.3215 8.18585C11.2813 8.1561 11.302 8.09241 11.352 8.09198L11.7381 8.08904L11.8602 7.72279C11.8759 7.67541 11.943 7.67541 11.9588 7.72279Z" fill="#F5F5F5"/>
<path d="M11.9588 9.63885L12.0809 10.0051L12.467 10.008C12.517 10.0085 12.5377 10.0722 12.4975 10.1019L12.1869 10.3313L12.3034 10.6993C12.3186 10.747 12.2642 10.7865 12.2236 10.7574L11.9095 10.5328L11.5954 10.7574C11.5548 10.7864 11.5006 10.747 11.5156 10.6993L11.6321 10.3313L11.3215 10.1019C11.2813 10.0723 11.302 10.0085 11.352 10.008L11.7381 10.0051L11.8602 9.63885C11.8759 9.59141 11.943 9.59141 11.9588 9.63885Z" fill="#F5F5F5"/>
<path d="M11.9588 11.5546L12.0809 11.9209L12.467 11.9238C12.517 11.9242 12.5377 11.9879 12.4975 12.0177L12.1869 12.2471L12.3034 12.6151C12.3186 12.6628 12.2642 12.7023 12.2236 12.6731L11.9095 12.4486L11.5954 12.6731C11.5548 12.7022 11.5006 12.6628 11.5156 12.6151L11.6321 12.2471L11.3215 12.0177C11.2813 11.9879 11.302 11.9242 11.352 11.9238L11.7381 11.9209L11.8602 11.5546C11.8759 11.5072 11.943 11.5072 11.9588 11.5546Z" fill="#F5F5F5"/>
<path d="M11.9588 13.4706L12.0809 13.8368L12.467 13.8398C12.517 13.8402 12.5377 13.9039 12.4975 13.9337L12.1869 14.163L12.3034 14.5311C12.3186 14.5787 12.2642 14.6182 12.2236 14.5891L11.9095 14.3646L11.5954 14.5891C11.5548 14.6182 11.5006 14.5787 11.5156 14.5311L11.6321 14.163L11.3215 13.9337C11.2813 13.9039 11.302 13.8402 11.352 13.8398L11.7381 13.8368L11.8602 13.4706C11.8759 13.4232 11.943 13.4232 11.9588 13.4706Z" fill="#F5F5F5"/>
<path d="M13.4456 6.78363L13.5678 7.14988L13.9538 7.15281C14.0038 7.15325 14.0245 7.217 13.9843 7.24669L13.6738 7.476L13.7903 7.84406C13.8054 7.89169 13.7511 7.93119 13.7104 7.90206L13.3963 7.67756L13.0823 7.90206C13.0416 7.93119 12.9874 7.89169 13.0024 7.84406L13.1189 7.476L12.8083 7.24669C12.7681 7.21694 12.7888 7.15319 12.8388 7.15281L13.2249 7.14988L13.347 6.78363C13.3628 6.73619 13.4298 6.73619 13.4456 6.78363Z" fill="#F5F5F5"/>
<path d="M13.4456 8.69959L13.5678 9.06584L13.9538 9.06878C14.0038 9.06922 14.0245 9.13291 13.9843 9.16266L13.6738 9.39203L13.7903 9.76009C13.8054 9.80772 13.7511 9.84722 13.7104 9.81809L13.3963 9.59359L13.0823 9.81809C13.0416 9.84715 12.9874 9.80772 13.0024 9.76009L13.1189 9.39203L12.8083 9.16266C12.7681 9.13291 12.7888 9.06922 12.8388 9.06878L13.2249 9.06584L13.347 8.69959C13.3628 8.65222 13.4298 8.65222 13.4456 8.69959Z" fill="#F5F5F5"/>
<path d="M13.4456 10.6154L13.5678 10.9817L13.9538 10.9846C14.0038 10.985 14.0245 11.0487 13.9843 11.0785L13.6738 11.3079L13.7903 11.6759C13.8054 11.7235 13.7511 11.763 13.7104 11.7339L13.3963 11.5094L13.0823 11.7339C13.0416 11.763 12.9874 11.7236 13.0024 11.6759L13.1189 11.3079L12.8083 11.0785C12.7681 11.0487 12.7888 10.985 12.8388 10.9846L13.2249 10.9817L13.347 10.6154C13.3628 10.568 13.4298 10.568 13.4456 10.6154Z" fill="#F5F5F5"/>
<path d="M13.4456 12.5312L13.5678 12.8974L13.9538 12.9004C14.0038 12.9008 14.0245 12.9646 13.9843 12.9942L13.6738 13.2236L13.7903 13.5917C13.8054 13.6393 13.7511 13.6788 13.7104 13.6497L13.3963 13.4252L13.0823 13.6497C13.0416 13.6788 12.9874 13.6393 13.0024 13.5917L13.1189 13.2236L12.8083 12.9942C12.7681 12.9646 12.7888 12.9008 12.8388 12.9004L13.2249 12.8974L13.347 12.5312C13.3628 12.4837 13.4298 12.4837 13.4456 12.5312Z" fill="#F5F5F5"/>
<path d="M13.4456 14.4472L13.5678 14.8134L13.9538 14.8163C14.0038 14.8168 14.0245 14.8805 13.9843 14.9102L13.6738 15.1396L13.7903 15.5076C13.8054 15.5553 13.7511 15.5948 13.7104 15.5656L13.3963 15.3411L13.0823 15.5656C13.0416 15.5947 12.9874 15.5553 13.0024 15.5076L13.1189 15.1396L12.8083 14.9102C12.7681 14.8805 12.7888 14.8168 12.8388 14.8163L13.2249 14.8134L13.347 14.4472C13.3628 14.3998 13.4298 14.3998 13.4456 14.4472Z" fill="#F5F5F5"/>
</svg>
