<svg width="20" height="20" viewBox="0 0 20 20" fill="none" xmlns="http://www.w3.org/2000/svg">
<path id="Vector" fill-rule="evenodd" clip-rule="evenodd" d="M10 19.6C12.5461 19.6 14.9879 18.5886 16.7882 16.7882C18.5886 14.9879 19.6 12.5461 19.6 10C19.6 7.45392 18.5886 5.01213 16.7882 3.21178C14.9879 1.41143 12.5461 0.400002 10 0.400002C7.45392 0.400002 5.01213 1.41143 3.21178 3.21178C1.41143 5.01213 0.400002 7.45392 0.400002 10C0.400002 12.5461 1.41143 14.9879 3.21178 16.7882C5.01213 18.5886 7.45392 19.6 10 19.6ZM10.8484 7.2484C11.067 7.02208 11.1879 6.71896 11.1852 6.40432C11.1825 6.08968 11.0563 5.78871 10.8338 5.56622C10.6113 5.34373 10.3103 5.21753 9.99568 5.21479C9.68105 5.21206 9.37792 5.33301 9.1516 5.5516L5.5516 9.1516C5.32664 9.37663 5.20026 9.6818 5.20026 10C5.20026 10.3182 5.32664 10.6234 5.5516 10.8484L9.1516 14.4484C9.37792 14.667 9.68105 14.7879 9.99568 14.7852C10.3103 14.7825 10.6113 14.6563 10.8338 14.4338C11.0563 14.2113 11.1825 13.9103 11.1852 13.5957C11.1879 13.281 11.067 12.9779 10.8484 12.7516L9.2968 11.2H13.6C13.9183 11.2 14.2235 11.0736 14.4485 10.8485C14.6736 10.6235 14.8 10.3183 14.8 10C14.8 9.68174 14.6736 9.37652 14.4485 9.15147C14.2235 8.92643 13.9183 8.8 13.6 8.8H9.2968L10.8484 7.2484Z" fill="white"/>
</svg>
