<svg width="12" height="8" viewBox="0 0 12 8" fill="none" xmlns="http://www.w3.org/2000/svg">
<path id="Vector" fill-rule="evenodd" clip-rule="evenodd" d="M11.6337 6.84814C11.4086 7.07311 11.1035 7.19949 10.7853 7.19949C10.4671 7.19949 10.1619 7.07311 9.93686 6.84814L5.98525 2.89654L2.03365 6.84814C1.80733 7.06673 1.50421 7.18768 1.18957 7.18495C0.874937 7.18222 0.573962 7.05601 0.351472 6.83352C0.128982 6.61103 0.00277947 6.31006 4.5363e-05 5.99542C-0.00268874 5.68079 0.118265 5.37767 0.336855 5.15134L5.13685 0.351344C5.36189 0.126379 5.66706 0 5.98525 0C6.30345 0 6.60862 0.126379 6.83365 0.351344L11.6337 5.15134C11.8586 5.37638 11.985 5.68155 11.985 5.99974C11.985 6.31794 11.8586 6.62311 11.6337 6.84814Z" fill="white"/>
</svg>
