<svg width="20" height="20" viewBox="0 0 20 20" fill="none" xmlns="http://www.w3.org/2000/svg">
<path id="Vector" fill-rule="evenodd" clip-rule="evenodd" d="M10 19.6C12.5461 19.6 14.9879 18.5886 16.7882 16.7882C18.5886 14.9879 19.6 12.5461 19.6 10C19.6 7.45392 18.5886 5.01213 16.7882 3.21178C14.9879 1.41143 12.5461 0.400002 10 0.400002C7.45392 0.400002 5.01212 1.41143 3.21177 3.21178C1.41143 5.01213 0.4 7.45392 0.4 10C0.4 12.5461 1.41143 14.9879 3.21177 16.7882C5.01212 18.5886 7.45392 19.6 10 19.6ZM14.4484 9.1516L10.8484 5.5516C10.6221 5.33301 10.319 5.21206 10.0043 5.21479C9.68968 5.21753 9.38871 5.34373 9.16622 5.56622C8.94373 5.78871 8.81752 6.08968 8.81479 6.40432C8.81206 6.71896 8.93301 7.02208 9.1516 7.2484L10.7032 8.8H6.4C6.08174 8.8 5.77652 8.92643 5.55147 9.15147C5.32643 9.37652 5.2 9.68174 5.2 10C5.2 10.3183 5.32643 10.6235 5.55147 10.8485C5.77652 11.0736 6.08174 11.2 6.4 11.2H10.7032L9.1516 12.7516C9.03699 12.8623 8.94557 12.9947 8.88268 13.1411C8.81979 13.2875 8.78668 13.445 8.7853 13.6043C8.78391 13.7637 8.81428 13.9217 8.87461 14.0691C8.93495 14.2166 9.02405 14.3506 9.13673 14.4633C9.2494 14.5759 9.38338 14.665 9.53085 14.7254C9.67833 14.7857 9.83634 14.8161 9.99568 14.8147C10.155 14.8133 10.3125 14.7802 10.4589 14.7173C10.6053 14.6544 10.7377 14.563 10.8484 14.4484L14.4484 10.8484C14.6734 10.6234 14.7997 10.3182 14.7997 10C14.7997 9.6818 14.6734 9.37663 14.4484 9.1516Z" fill="white"/>
</svg>
