<svg width="26" height="26" viewBox="0 0 26 26" fill="none" xmlns="http://www.w3.org/2000/svg">
<path fill-rule="evenodd" clip-rule="evenodd" d="M13 25.7999C16.3947 25.7999 19.6505 24.4514 22.0509 22.0509C24.4514 19.6505 25.7999 16.3947 25.7999 13C25.7999 9.60518 24.4514 6.34945 22.0509 3.94898C19.6505 1.54852 16.3947 0.199951 13 0.199951C9.60518 0.199951 6.34945 1.54852 3.94898 3.94898C1.54852 6.34945 0.199951 9.60518 0.199951 13C0.199951 16.3947 1.54852 19.6505 3.94898 22.0509C6.34945 24.4514 9.60518 25.7999 13 25.7999V25.7999ZM14.1311 9.33115C14.4226 9.02939 14.5839 8.62522 14.5802 8.20571C14.5766 7.78619 14.4083 7.38489 14.1117 7.08824C13.815 6.79159 13.4137 6.62332 12.9942 6.61967C12.5747 6.61603 12.1705 6.7773 11.8688 7.06875L7.06875 11.8688C6.7688 12.1688 6.60029 12.5757 6.60029 13C6.60029 13.4242 6.7688 13.8311 7.06875 14.1311L11.8688 18.9311C12.1705 19.2226 12.5747 19.3839 12.9942 19.3802C13.4137 19.3766 13.815 19.2083 14.1117 18.9117C14.4083 18.615 14.5766 18.2137 14.5802 17.7942C14.5839 17.3747 14.4226 16.9705 14.1311 16.6688L12.0623 14.6H17.8C18.2243 14.6 18.6313 14.4314 18.9313 14.1313C19.2314 13.8313 19.4 13.4243 19.4 13C19.4 12.5756 19.2314 12.1686 18.9313 11.8686C18.6313 11.5685 18.2243 11.4 17.8 11.4H12.0623L14.1311 9.33115V9.33115Z" fill="#121721"/>
</svg>
