<svg width="16" height="16" viewBox="0 0 16 16" fill="none" xmlns="http://www.w3.org/2000/svg">
<path id="Vector" d="M8.70809 0.29279C8.52027 0.105317 8.26557 0 8 0C7.73443 0 7.47973 0.105317 7.29191 0.29279L0.281144 7.29288C0.0987053 7.48149 -0.00224406 7.73409 3.78608e-05 7.99629C0.00231978 8.25849 0.107651 8.50931 0.293344 8.69472C0.479037 8.88013 0.730235 8.9853 0.992835 8.98758C1.25544 8.98986 1.50843 8.88906 1.69732 8.7069L1.99077 8.4139V15C1.99077 15.2652 2.09629 15.5196 2.28411 15.7071C2.47194 15.8946 2.72668 16 2.99231 16H4.99538C5.26101 16 5.51575 15.8946 5.70358 15.7071C5.8914 15.5196 5.99692 15.2652 5.99692 15V13C5.99692 12.7347 6.10244 12.4804 6.29027 12.2928C6.47809 12.1053 6.73284 11.9999 6.99846 11.9999H9.00154C9.26716 11.9999 9.52191 12.1053 9.70973 12.2928C9.89756 12.4804 10.0031 12.7347 10.0031 13V15C10.0031 15.2652 10.1086 15.5196 10.2964 15.7071C10.4842 15.8946 10.739 16 11.0046 16H13.0077C13.2733 16 13.5281 15.8946 13.7159 15.7071C13.9037 15.5196 14.0092 15.2652 14.0092 15V8.4139L14.3027 8.7069C14.4916 8.88906 14.7446 8.98986 15.0072 8.98758C15.2698 8.9853 15.521 8.88013 15.7067 8.69472C15.8923 8.50931 15.9977 8.25849 16 7.99629C16.0022 7.73409 15.9013 7.48149 15.7189 7.29288L8.70809 0.29279Z" fill="white"/>
</svg>
