<svg width="32" height="32" viewBox="0 0 32 32" fill="none" xmlns="http://www.w3.org/2000/svg">
<path fill-rule="evenodd" clip-rule="evenodd" d="M8.46879 12.4885C8.76884 12.1885 9.17573 12.02 9.59999 12.02C10.0243 12.02 10.4311 12.1885 10.7312 12.4885L16 17.7573L21.2688 12.4885C21.4164 12.3356 21.5929 12.2138 21.7881 12.1299C21.9834 12.046 22.1933 12.0019 22.4058 12.0001C22.6182 11.9982 22.8289 12.0387 23.0255 12.1191C23.2222 12.1996 23.4008 12.3184 23.551 12.4686C23.7013 12.6189 23.8201 12.7975 23.9005 12.9941C23.981 13.1908 24.0214 13.4015 24.0196 13.6139C24.0177 13.8263 23.9736 14.0363 23.8898 14.2315C23.8059 14.4267 23.684 14.6033 23.5312 14.7509L17.1312 21.1509C16.8311 21.4508 16.4243 21.6193 16 21.6193C15.5757 21.6193 15.1688 21.4508 14.8688 21.1509L8.46879 14.7509C8.16884 14.4508 8.00034 14.0439 8.00034 13.6197C8.00034 13.1954 8.16884 12.7885 8.46879 12.4885Z" fill="#FF8500"/>
</svg>
