<svg width="36" height="36" viewBox="0 0 36 36" fill="none" xmlns="http://www.w3.org/2000/svg">
<path fill-rule="evenodd" clip-rule="evenodd" d="M18 35.6C22.6678 35.6 27.1444 33.7457 30.4451 30.4451C33.7457 27.1445 35.6 22.6678 35.6 18C35.6 13.3322 33.7457 8.85559 30.4451 5.55495C27.1444 2.25431 22.6678 0.400024 18 0.400024C13.3322 0.400024 8.85555 2.25431 5.55491 5.55495C2.25427 8.85559 0.399994 13.3322 0.399994 18C0.399994 22.6678 2.25427 27.1445 5.55491 30.4451C8.85555 33.7457 13.3322 35.6 18 35.6ZM15.1554 12.0446C14.7405 11.6439 14.1847 11.4221 13.6079 11.4271C13.0311 11.4322 12.4793 11.6635 12.0714 12.0714C11.6635 12.4793 11.4321 13.0311 11.4271 13.6079C11.4221 14.1848 11.6438 14.7405 12.0446 15.1554L14.8892 18L12.0446 20.8446C11.8345 21.0476 11.6669 21.2903 11.5516 21.5587C11.4363 21.8271 11.3756 22.1158 11.373 22.4079C11.3705 22.7001 11.4262 22.9898 11.5368 23.2601C11.6474 23.5305 11.8108 23.7761 12.0173 23.9827C12.2239 24.1893 12.4695 24.3526 12.7399 24.4632C13.0103 24.5739 13.3 24.6295 13.5921 24.627C13.8842 24.6244 14.1729 24.5637 14.4413 24.4484C14.7097 24.3331 14.9524 24.1655 15.1554 23.9554L18 21.1108L20.8446 23.9554C21.2595 24.3562 21.8152 24.5779 22.3921 24.5729C22.9689 24.5679 23.5207 24.3365 23.9286 23.9286C24.3365 23.5207 24.5679 22.9689 24.5729 22.3921C24.5779 21.8153 24.3561 21.2596 23.9554 20.8446L21.1108 18L23.9554 15.1554C24.3561 14.7405 24.5779 14.1848 24.5729 13.6079C24.5679 13.0311 24.3365 12.4793 23.9286 12.0714C23.5207 11.6635 22.9689 11.4322 22.3921 11.4271C21.8152 11.4221 21.2595 11.6439 20.8446 12.0446L18 14.8892L15.1554 12.0446Z" fill="#ABB0B8"/>
</svg>
