<svg width="32" height="32" viewBox="0 0 32 32" fill="none" xmlns="http://www.w3.org/2000/svg">
<path fill-rule="evenodd" clip-rule="evenodd" d="M11.2 3.19995C11.6243 3.19995 12.0313 3.36852 12.3314 3.66858C12.6314 3.96864 12.8 4.3756 12.8 4.79995V6.39995H17.6C18.0243 6.39995 18.4313 6.56852 18.7314 6.86858C19.0314 7.16864 19.2 7.5756 19.2 7.99995C19.2 8.4243 19.0314 8.83126 18.7314 9.13132C18.4313 9.43138 18.0243 9.59995 17.6 9.59995H15.3248C14.7544 12.262 13.8265 14.8346 12.5664 17.2479C13.0304 17.8144 13.52 18.3616 14.0288 18.8896C14.1747 19.0408 14.2894 19.2194 14.3663 19.415C14.4433 19.6106 14.4809 19.8194 14.4771 20.0296C14.4733 20.2398 14.4282 20.4471 14.3443 20.6398C14.2603 20.8325 14.1393 21.0068 13.988 21.1528C13.8367 21.2987 13.6582 21.4134 13.4626 21.4903C13.267 21.5672 13.0581 21.6049 12.8479 21.6011C12.6378 21.5973 12.4304 21.5521 12.2377 21.4682C12.045 21.3843 11.8707 21.2632 11.7248 21.1119C11.424 20.7983 11.128 20.4783 10.8384 20.152C9.42425 22.253 7.75438 24.1701 5.8672 25.8591C5.55036 26.1376 5.13642 26.2796 4.71539 26.2544C4.29437 26.2292 3.90034 26.0387 3.619 25.7245C3.33766 25.4103 3.19178 24.9976 3.2131 24.5764C3.23441 24.1552 3.42118 23.7594 3.7328 23.4751C5.67883 21.7336 7.3653 19.7223 8.7408 17.5024C7.84706 16.2349 7.05167 14.9008 6.3616 13.512C6.26033 13.3231 6.19803 13.1159 6.17838 12.9025C6.15873 12.6892 6.18214 12.474 6.24721 12.2699C6.31229 12.0657 6.4177 11.8767 6.5572 11.7141C6.6967 11.5515 6.86744 11.4185 7.0593 11.3231C7.25116 11.2277 7.46023 11.1718 7.67409 11.1588C7.88796 11.1457 8.10227 11.1757 8.30432 11.2471C8.50636 11.3184 8.69202 11.4296 8.85027 11.574C9.00853 11.7185 9.13616 11.8932 9.2256 12.088C9.6 12.84 10.008 13.5728 10.448 14.2832C11.1152 12.7888 11.6512 11.2224 12.0432 9.59995H4.8C4.37565 9.59995 3.96868 9.43138 3.66863 9.13132C3.36857 8.83126 3.2 8.4243 3.2 7.99995C3.2 7.5756 3.36857 7.16864 3.66863 6.86858C3.96868 6.56852 4.37565 6.39995 4.8 6.39995H9.6V4.79995C9.6 4.3756 9.76857 3.96864 10.0686 3.66858C10.3687 3.36852 10.7757 3.19995 11.2 3.19995ZM20.8 12.8C21.0971 12.8001 21.3882 12.883 21.6408 13.0392C21.8935 13.1955 22.0976 13.419 22.2304 13.6848L27.016 23.2559C27.0271 23.2754 27.0378 23.2952 27.048 23.3151L28.632 26.4832C28.8219 26.8629 28.8531 27.3026 28.7189 27.7054C28.5846 28.1083 28.2958 28.4413 27.916 28.6312C27.5362 28.821 27.0965 28.8523 26.6937 28.718C26.2909 28.5837 25.9579 28.2949 25.768 27.9151L24.6128 25.5999H16.9904L15.832 27.9151C15.7421 28.1097 15.6141 28.2842 15.4555 28.4283C15.297 28.5724 15.1111 28.6832 14.9088 28.7541C14.7066 28.825 14.4922 28.8545 14.2784 28.841C14.0645 28.8274 13.8556 28.7711 13.6639 28.6753C13.4723 28.5794 13.3018 28.4461 13.1627 28.2831C13.0236 28.1202 12.9186 27.9309 12.854 27.7266C12.7893 27.5223 12.7664 27.3071 12.7866 27.0938C12.8067 26.8805 12.8695 26.6734 12.9712 26.4847L14.5552 23.3167L14.5856 23.2559L19.3696 13.6848C19.5024 13.419 19.7065 13.1955 19.9592 13.0392C20.2118 12.883 20.5029 12.8001 20.8 12.8ZM18.5888 22.4H23.0112L20.8 17.9776L18.5888 22.4Z" fill="#7E8592"/>
</svg>
