<svg width="108" height="48" viewBox="0 0 108 48" fill="none" xmlns="http://www.w3.org/2000/svg">
<g id="switcher-dark-mode">
<rect id="bg" width="108" height="48" fill="#121721"/>
<g id="moon">
<path id="Vector" d="M37.1275 29.9275C34.4609 31.1336 31.4899 31.4986 28.6106 30.9737C25.7313 30.4489 23.0802 29.0591 21.0107 26.9895C18.9411 24.92 17.5513 22.2689 17.0264 19.3896C16.5016 16.5103 16.8665 13.5393 18.0727 10.8727C15.9497 11.8321 14.0912 13.2922 12.6565 15.1278C11.2219 16.9634 10.2539 19.1196 9.83577 21.4114C9.4176 23.7033 9.56167 26.0624 10.2556 28.2864C10.9496 30.5104 12.1727 32.5328 13.8201 34.1801C15.4674 35.8275 17.4898 37.0506 19.7138 37.7446C21.9377 38.4385 24.2969 38.5826 26.5887 38.1644C28.8806 37.7462 31.0368 36.7783 32.8724 35.3436C34.708 33.909 36.1681 32.0504 37.1275 29.9275V29.9275Z" fill="#0085FF"/>
</g>
<g id="stars">
<circle id="Ellipse 7" cx="52.5" cy="18" r="1.5" fill="#0066DB"/>
<ellipse id="Ellipse 7_2" cx="66" cy="28.5" rx="4.5" ry="4.5" fill="#3FADFF"/>
<circle id="Ellipse 8" cx="86.25" cy="28.5" r="2.25" fill="#004CB7"/>
<circle id="Ellipse 6" cx="82.5" cy="7.5" r="3" fill="#003693"/>
</g>
</g>
</svg>
