<svg width="18" height="12" viewBox="0 0 18 12" fill="none" xmlns="http://www.w3.org/2000/svg">
<path id="Vector" d="M15.5455 3H13.0909V0H1.63636C0.732273 0 0 0.67125 0 1.5V9.75H1.63636C1.63636 10.9913 2.73682 12 4.09091 12C5.445 12 6.54545 10.9913 6.54545 9.75H11.4545C11.4545 10.9913 12.555 12 13.9091 12C15.2632 12 16.3636 10.9913 16.3636 9.75H18V6L15.5455 3ZM4.09091 10.875C3.41182 10.875 2.86364 10.3725 2.86364 9.75C2.86364 9.1275 3.41182 8.625 4.09091 8.625C4.77 8.625 5.31818 9.1275 5.31818 9.75C5.31818 10.3725 4.77 10.875 4.09091 10.875ZM15.1364 4.125L16.7441 6H13.0909V4.125H15.1364ZM13.9091 10.875C13.23 10.875 12.6818 10.3725 12.6818 9.75C12.6818 9.1275 13.23 8.625 13.9091 8.625C14.5882 8.625 15.1364 9.1275 15.1364 9.75C15.1364 10.3725 14.5882 10.875 13.9091 10.875Z" fill="white"/>
</svg>
